<svg width="272" height="198" viewBox="0 0 272 198" fill="none" xmlns="http://www.w3.org/2000/svg">
<path d="M82.808 55.384C87.672 87.384 93.048 119.384 99.448 151H81.016C82.936 135.896 64.248 117.464 44.92 117.464C35.704 117.464 28.92 122.2 27.256 129.496C25.08 139.48 34.808 147.8 45.048 151H16.248C16.248 147.416 15.48 144.6 16.376 140.888C18.296 131.8 25.336 123.224 35.448 117.464L66.168 66.392L64.888 60.376L82.808 55.384ZM38.648 115.8C45.688 112.472 53.24 110.68 60.536 110.68C65.784 110.68 70.776 111.576 75.384 113.368L66.68 68.952L38.648 115.8ZM110.33 151C101.498 151 104.186 142.424 109.05 120.792L115.962 88.92L130.554 99.032L125.818 120.792C124.282 127.704 102.65 149.08 112.122 149.08C125.05 149.08 146.81 109.4 151.29 88.92H168.058L157.562 136.92L173.69 122.2L174.97 122.84L154.746 149.336H152.698L137.21 134.232L142.074 130.904L146.938 109.144C137.594 129.624 124.282 151 110.33 151ZM212.208 89.048C236.784 89.048 256.752 104.024 256.752 120.92C256.752 140.632 234.608 152.664 207.472 152.664C184.432 152.664 169.2 143.832 164.464 127.96L186.224 119.384C184.304 136.28 201.968 146.392 225.392 146.392C237.424 146.392 246.64 141.784 246.64 132.824C246.64 126.936 243.056 121.176 238.576 116.312C231.024 120.28 221.68 122.456 212.208 122.456C186.992 122.456 167.664 107.864 167.664 90.712C167.664 73.432 187.248 59.48 212.336 59.48L251.76 60.504L251.376 64.6L237.296 81.368C235.888 71.896 209.264 66.008 195.312 66.008C184.304 66.008 177.648 71 177.648 78.68C177.648 84.568 181.232 90.456 185.712 95.32C193.392 91.096 202.48 89.048 212.208 89.048ZM187.632 97.24C196.336 105.944 212.976 115.288 228.976 115.288C231.664 115.288 234.352 115.032 236.784 114.392C227.952 105.56 211.44 96.216 195.312 96.216C192.752 96.216 190.064 96.472 187.632 97.24Z" fill="#009B4C"/>
</svg>
