<svg width="100" height="100" viewBox="0 0 100 100" fill="none" xmlns="http://www.w3.org/2000/svg">
<g clip-path="url(#clip0_88_2)">
<rect width="100" height="100" fill="white"/>
<path d="M31.25 45.4H36.85V75.64C36.85 79.6067 37.83 82.8267 39.79 85.3C41.7967 87.7733 44.8067 89.01 48.82 89.01C52.8333 89.01 55.8433 87.7733 57.85 85.3C59.8567 82.8267 60.86 79.6067 60.86 75.64V45.4H66.46V75.29C66.46 80.8433 64.99 85.37 62.05 88.87C59.11 92.37 54.7 94.12 48.82 94.12C42.94 94.12 38.53 92.37 35.59 88.87C32.6967 85.37 31.25 80.8433 31.25 75.29V45.4Z" fill="black"/>
<path d="M59.32 57.48C60.72 59.02 62.54 60.3033 64.78 61.33C67.0667 62.3567 69.54 62.87 72.2 62.87C74.9067 62.87 77.2167 62.17 79.13 60.77C81.09 59.37 82.07 57.41 82.07 54.89C82.07 52.3233 81.23 50.3167 79.55 48.87C77.9167 47.4233 75.91 46.3267 73.53 45.58C71.1967 44.8333 68.84 44.04 66.46 43.2C64.1267 42.36 62.12 40.9833 60.44 39.07C58.8067 37.11 57.99 34.5433 57.99 31.37C57.99 27.03 59.39 23.7633 62.19 21.57C65.0367 19.3767 68.3733 18.28 72.2 18.28C77.4733 18.28 81.8367 19.3767 85.29 21.57L82.49 26.05C79.83 24.37 76.3767 23.53 72.13 23.53C69.89 23.53 67.9067 24.16 66.18 25.42C64.4533 26.68 63.59 28.5467 63.59 31.02C63.59 34.1467 65.2 36.4333 68.42 37.88C69.82 38.5333 71.36 39.1167 73.04 39.63C74.7667 40.1433 76.47 40.75 78.15 41.45C79.8767 42.15 81.44 42.99 82.84 43.97C86.06 46.1633 87.67 49.5933 87.67 54.26C87.67 58.88 86.1767 62.3567 83.19 64.69C80.25 66.9767 76.5167 68.12 71.99 68.12C65.97 68.12 60.6733 65.9733 56.1 61.68L59.32 57.48Z" fill="#8A2222"/>
<path d="M32.89 10.4L48.92 58H43.11L38.49 44H20.43L15.81 58H10L26.03 10.4H32.89ZM29.46 16.56L22.04 38.96H36.81L29.46 16.56Z" fill="black"/>
</g>
<defs>
<clipPath id="clip0_88_2">
<rect width="100" height="100" fill="white"/>
</clipPath>
</defs>
</svg>
